/* XPM */
static char *dummy[]={
"32 32 4 1",
". c #000000",
"# c #404040",
"a c #a0a0a0",
"b c #c0c0c0",
"................................",
"................................",
"..##aaaaaaaaaaaaaaaaaaaaaaaa##..",
"..##aaaaaaaaaaaaaaaaaaaaaaaa##..",
"..aaaaaaaaaaaaaaaaaaaaaaaaaabb..",
"..aaaaaaaaaaaaaaaaaaaaaaaaaabb..",
"..aaaaaaaaaaaaaaaaaaaaaaaaaabb..",
"..aaaaaaaaaaaaaaaaaaaaaaaaaabb..",
"..aaaaaaaaaaaaaaaaaaaaaaaaaabb..",
"..aaaaaaaaaaaaaaaaaaaaaaaaaabb..",
"..aaaaaaaaaaaaaaaaaaaaaaaaaabb..",
"..aaaaaaaaaaaaaaaaaaaaaaaaaabb..",
"..aaaaaaaaaaaaaaaaaaaaaaaaaabb..",
"..aaaaaaaaaaaaaaaaaaaaaaaaaabb..",
"..aaaaaaaaaaaaaaaaaaaaaaaaaabb..",
"..aaaaaaaaaaaaaaaaaaaaaaaaaabb..",
"..aaaaaaaaaaaaaaaaaaaaaaaaaabb..",
"..aaaaaaaaaaaaaaaaaaaaaaaaaabb..",
"..aaaaaaaaaaaaaaaaaaaaaaaaaabb..",
"..aaaaaaaaaaaaaaaaaaaaaaaaaabb..",
"..aaaaaaaaaaaaaaaaaaaaaaaaaabb..",
"..aaaaaaaaaaaaaaaaaaaaaaaaaabb..",
"..aaaaaaaaaaaaaaaaaaaaaaaaaabb..",
"..aaaaaaaaaaaaaaaaaaaaaaaaaabb..",
"..aaaaaaaaaaaaaaaaaaaaaaaaaabb..",
"..aaaaaaaaaaaaaaaaaaaaaaaaaabb..",
"..aaaaaaaaaaaaaaaaaaaaaaaabbbb..",
"..aaaaaaaaaaaaaaaaaaaaaaaabbbb..",
"..##bbbbbbbbbbbbbbbbbbbbbbbb##..",
"..##bbbbbbbbbbbbbbbbbbbbbbbb##..",
"................................",
"................................"};
