/* XPM */
static char *dummy[]={
"32 32 358 2",
"Qt c #000000",
".# c #404040",
"cz c #978282",
"#C c #988282",
".m c #998181",
"cj c #9a8181",
"db c #9b7362",
"cW c #9b7862",
"do c #9b7863",
"cJ c #9d7c68",
"dB c #9d8181",
"b5 c #9e8581",
"#V c #9e8a85",
".b c #9e9e9e",
".6 c #9f7f69",
".c c #9f8b81",
"da c #a07a58",
".z c #a08169",
"ab c #a08f81",
".a c #a0a0a0",
"#k c #a2836a",
".k c #a29280",
"cX c #a3805c",
".O c #a48567",
"b4 c #a68358",
"dJ c #a6845e",
".P c #a88767",
"ac c #aa8d6a",
"at c #ab906b",
"dC c #ac916e",
".5 c #ad906f",
"cy c #ae8249",
"ck c #ae834b",
"bP c #ae946f",
".d c #af9a7e",
"dA c #b08649",
".j c #b29f84",
"dp c #b4905f",
"dI c #b6893f",
"dD c #b79054",
"bO c #b79157",
"#D c #b79563",
"#U c #b79669",
"aJ c #b88d46",
"au c #b98d48",
"bA c #b9955f",
".n c #b99a6e",
".e c #ba9865",
".i c #bb9764",
".y c #bfa57b",
".l c #c0c0c0",
"dE c #c38a20",
"dH c #c38b28",
"bz c #ca9c52",
"dF c #cb8d1c",
"dG c #cb8e20",
"bo c #cb9c50",
"dn c #cc972f",
"aY c #cc9a41",
"cI c #cd972e",
"cA c #cd982e",
"dc c #ce9d3c",
"aK c #ce9e4b",
".h c #d1a351",
".f c #d1a352",
"ci c #d59f28",
"dz c #d59f2a",
"bn c #d5a550",
"bc c #d5a64f",
"#l c #d6ad5a",
"bb c #d7a751",
"aZ c #d8a852",
".A c #d8b569",
"#W c #daaa41",
"b6 c #daaf57",
"dq c #dab361",
"cY c #dca62a",
".N c #dcbf7f",
"cV c #dda526",
".g c #ddac50",
".o c #ddb55f",
"aa c #debb6c",
"#f c #e16100",
".x c #e1c27d",
"#a c #e26400",
".X c #e26c05",
".Y c #e26d0a",
"bh c #e29014",
"#y c #e37009",
"cK c #e3bb61",
"#p c #e46e03",
".Z c #e4751c",
"cq c #e47b00",
"ct c #e48216",
"aS c #e48800",
".7 c #e4b752",
".Q c #e4b959",
"#R c #e57202",
"#H c #e57203",
".W c #e57207",
"aT c #e59518",
"#b c #e67200",
"## c #e78414",
"#g c #e78c38",
"c. c #e79b36",
"bg c #e87d00",
"cd c #e8a138",
"#x c #e97500",
"aU c #e9890a",
"dy c #e9b229",
"b3 c #e9b638",
"#j c #e9c878",
"ap c #ea7600",
"#q c #ea7700",
"#9 c #ea850a",
"#Z c #ea8510",
"b0 c #ea8b0e",
".V c #ea8b14",
"bT c #ea8c17",
".0 c #ea9539",
"cE c #ea982a",
"bu c #eaa436",
".4 c #eac97b",
"ag c #eb7800",
"#c c #eb7b00",
"a9 c #eb7f00",
"cQ c #eb8000",
"cu c #ec8300",
"cF c #eca441",
"cr c #eca932",
"a4 c #ecb14d",
"#e c #ed7d00",
"#d c #ed7e00",
"cp c #ed8200",
"ax c #ed912a",
"bD c #ed940e",
"bK c #ed9812",
"#8 c #ee7f00",
"#Q c #ee8000",
"#I c #ee8100",
"cP c #ee8300",
"aV c #ee8705",
"aN c #ee891a",
"bt c #ee8a00",
"aG c #ee9226",
"c# c #eeb63c",
"ad c #eebb35",
"b. c #ef8600",
"ce c #ef8602",
"a8 c #ef930a",
"a3 c #f08800",
"aF c #f0980f",
"as c #f0c75e",
"dr c #f0cb6c",
"#K c #f18400",
"#N c #f18500",
"bS c #f18600",
"#r c #f18700",
"#w c #f18701",
"a2 c #f18a13",
"aO c #f18e14",
"#O c #f28700",
"#J c #f28800",
"#1 c #f28900",
"#0 c #f28a00",
"cD c #f28a01",
"#t c #f28b00",
"#P c #f28b01",
"ao c #f28d02",
"co c #f28d09",
"bf c #f28d10",
"br c #f28e04",
"c7 c #f28e1c",
"c4 c #f28e1e",
"ay c #f28f14",
"by c #f2960e",
"cl c #f2be29",
"cx c #f2be2c",
"aB c #f2bf5c",
"ah c #f38b00",
"#s c #f38c00",
"c6 c #f38e18",
"c5 c #f38e1c",
"#2 c #f3910d",
"bq c #f39419",
"cO c #f3971b",
"bG c #f3bc4f",
"dm c #f3bf2c",
"bQ c #f3d06f",
"#u c #f4940d",
"#7 c #f49922",
"cR c #f49923",
"c8 c #f49b1d",
"b9 c #f49b1f",
"cf c #f49d25",
"c3 c #f49d29",
"#L c #f4ab36",
"#o c #f4ac24",
"af c #f4b135",
"#z c #f4bb5d",
".p c #f4cb5c",
"bs c #f59600",
"#v c #f5a024",
"bC c #f5a734",
"aq c #f5ba56",
"cc c #f5c13e",
"cs c #f5c456",
"dd c #f5d16c",
"bL c #f6a735",
".U c #f6b628",
"bI c #f6be36",
".1 c #f6c669",
"#E c #f6c741",
"bH c #f6c95f",
"#G c #f7b528",
"bi c #f7bf2a",
"aQ c #f7c451",
".B c #f7cd55",
"#S c #f8b72e",
"#3 c #f8b74e",
"#. c #f8b829",
"aR c #f8c346",
"#h c #f8c968",
"cG c #f9b83d",
"c9 c #f9ba4b",
"bl c #f9bc51",
"#6 c #f9bf57",
"cC c #f9bf5b",
"c2 c #f9c063",
"ai c #f9c155",
"aD c #f9cd5b",
".w c #f9dc85",
"cn c #fabf3f",
"cN c #fabf43",
"cS c #fabf44",
"bR c #fac156",
"b1 c #fac45c",
".M c #fade87",
"cv c #fbbe3a",
"bF c #fbca5c",
"#4 c #fbd16b",
"#M c #fbd16d",
"aC c #fbd874",
"bU c #fbda74",
"#Y c #fcc62e",
"bX c #fcc72e",
"ca c #fcc82d",
"bZ c #fccb3b",
"bW c #fccc4a",
"di c #fcce60",
"an c #fcd063",
"dh c #fcd26e",
"bv c #fcd970",
"a7 c #fdc425",
".T c #fdc82c",
"a. c #fdc93f",
"dx c #fdcb2f",
"bE c #fdcd4b",
"aE c #fdce40",
"c1 c #fdd877",
"be c #fdda76",
"bm c #fdda77",
".2 c #fddb78",
"bw c #fddc75",
".G c #feca2e",
"aW c #fecb2c",
".F c #fecb2d",
"cZ c #fecc2b",
"bY c #fecc30",
"cb c #fecc33",
".H c #fecc37",
"b8 c #fecc41",
"aI c #fece3a",
"cg c #fecf4e",
"d. c #fecf56",
"b# c #fed151",
"av c #fed450",
"dj c #fed66a",
"bx c #fed75e",
".I c #fed761",
"a5 c #fed85e",
"aw c #fedb6b",
"a1 c #fedc79",
"#5 c #fedd79",
"aP c #fede7a",
"az c #fedf7b",
"aM c #fee07f",
"dg c #fee08b",
".E c #ffcc29",
".9 c #ffcf2f",
"#n c #ffcf30",
"bJ c #ffcf31",
"#T c #ffd02c",
"cU c #ffd031",
"a6 c #ffd03a",
"dv c #ffd12f",
"dw c #ffd130",
".D c #ffd131",
"#F c #ffd132",
"ch c #ffd133",
"ae c #ffd135",
"dl c #ffd137",
"#m c #ffd143",
"aH c #ffd147",
".S c #ffd233",
"cm c #ffd236",
"cw c #ffd237",
"#X c #ffd23a",
"du c #ffd339",
"dk c #ffd33c",
"cH c #ffd342",
"bj c #ffd346",
".R c #ffd34c",
"d# c #ffd43e",
"aX c #ffd441",
".8 c #ffd444",
"cT c #ffd448",
".t c #ffd547",
".s c #ffd548",
".C c #ffd64a",
"c0 c #ffd74d",
"cB c #ffd75b",
"#B c #ffd75c",
".u c #ffd852",
".r c #ffd854",
"cM c #ffd85b",
"b7 c #ffda5f",
".q c #ffda63",
"dt c #ffdb5d",
"bk c #ffdb68",
"cL c #ffde6b",
"b2 c #ffdf69",
"a# c #ffdf6e",
"ds c #ffdf75",
"bN c #ffdf77",
".v c #ffe075",
".J c #ffe078",
"bp c #ffe07e",
"#A c #ffe174",
"bB c #ffe17e",
"ba c #ffe277",
"bM c #ffe27f",
"bV c #ffe377",
"aL c #ffe37c",
"aj c #ffe37f",
"al c #ffe380",
"ak c #ffe381",
"#i c #ffe47f",
"aA c #ffe481",
"ar c #ffe57e",
"bd c #ffe581",
"a0 c #ffe582",
"df c #ffe58e",
"am c #ffe681",
".K c #ffe682",
"de c #ffe684",
".3 c #ffe687",
".L c #ffe889",
"QtQtQtQtQtQtQtQtQtQtQtQtQtQtQtQtQtQtQtQtQtQtQtQtQtQtQtQtQtQtQtQt",
"QtQtQtQtQtQtQtQtQtQtQtQtQtQtQtQtQtQtQtQtQtQtQtQtQtQtQtQtQtQtQtQt",
"QtQt.#.#.a.a.a.a.a.a.a.a.a.a.a.a.a.a.a.a.a.a.a.a.a.a.a.a.#.#QtQt",
"QtQt.#.#.a.a.a.a.a.a.a.a.a.a.a.a.a.a.a.a.a.a.a.a.a.a.a.a.#.#QtQt",
"QtQt.a.a.a.a.a.a.a.a.b.c.d.e.f.g.g.h.i.j.k.b.a.a.a.a.a.a.l.lQtQt",
"QtQt.a.a.a.a.a.a.a.m.n.o.p.q.r.s.t.u.v.w.x.y.m.a.a.a.a.a.l.lQtQt",
"QtQt.a.a.a.a.a.a.z.A.B.C.D.E.F.G.H.I.J.K.L.M.N.O.a.a.a.a.l.lQtQt",
"QtQt.a.a.a.a.a.P.Q.R.S.T.U.V.W.X.Y.Z.0.1.2.K.3.4.5.a.a.a.l.lQtQt",
"QtQt.a.a.a.a.6.7.8.9#.###a#b#c#d#e#c#b#f#g#h#i.3#j#k.a.a.l.lQtQt",
"QtQt.a.a.a.m#l#m#n#o#p#q#r#s#t#u#v#t#s#w#x#y#z#A#B#l#C.a.l.lQtQt",
"QtQt.a.a.b#D#E#F#G#H#I#t#t#J#K#L#M#N#O#P#t#Q#R#S#T#E#U.b.l.lQtQt",
"QtQt.a.a#V#W#X#Y#Z#Q#t#0#1#2#3#4#5#6#7#J#0#t#8#9a.a#aaab.l.lQtQt",
"QtQt.a.aacadaeafagah#0#1#0aiajakalamanao#1#0#tapaqarasat.l.lQtQt",
"QtQt.a.aauavawax#r#0#0#1ayazaAaBaCaDaEaF#1#0#0#raGaHaIaJ.l.lQtQt",
"QtQt.a.aaKaLaMaN#0#0#0#1aOaPakaQaRaSaTaU#0#0#0#0aVaWaXaY.l.lQtQt",
"QtQt.a.aaZa0a1a2#1#0#0#0a3a4a5a6a7a8a9b.#0#0#0#1a3b#babb.l.lQtQt",
"QtQt.a.abcbdbebf#1#0#0#0#1bgbhbibjbkbl#0#0#0#0#1bfbma0bn.l.lQtQt",
"QtQt.a.abobdbpbq#1#0#0#0brbsbtbubvbwbxby#1#0#0#1bqbpa0bz.l.lQtQt",
"QtQt.a.abAajbBbC#O#0#0#1bDbEbFbGbHbIbJbK#1#0#0#ObLbMbNbO.l.lQtQt",
"QtQt.a.abPbQbdbRbS#0#0#1bTbUbVbWbXbYbZb0#1#0#0bSb1b2b3b4.l.lQtQt",
"QtQt.a.ab5b6b7b8b9#O#0#0#rc.c#cacbcccdce#0#0bScfcgchcicj.l.lQtQt",
"QtQt.a.a.bckclcmcnco#J#0#0cpcqcrcsctcu#0#0#Jaocvcwcxcy.b.l.lQtQt",
"QtQt.a.a.aczcAcBakcC#t#OcD#0#JcEcFbS#0cD#r#tcGcHbYcIcz.a.l.lQtQt",
"QtQt.a.a.a.acJcKcLcMcNcO#N#J#1cPcQ#0#JbScRcScTcUcVcW.a.a.l.lQtQt",
"QtQt.a.a.a.a.acXcYcZc0c1c2c3c4c5c6c7c8c9d.d#bYcVda.a.a.a.l.lQtQt",
"QtQt.a.a.a.a.a.adbdcdd.Kdedfdgdhdidj#Bdkdldmdndo.a.a.a.a.l.lQtQt",
"QtQt.a.a.a.a.a.a.a#CdpdqdrdsdtdudvdwdxdydzdA#C.a.a.a.l.l.l.lQtQt",
"QtQt.a.a.a.a.a.a.a.a.bdBdCdDdEdFdGdHdIdJcj.b.a.a.a.a.l.l.l.lQtQt",
"QtQt.#.#.l.l.l.l.l.l.l.l.l.l.l.l.l.l.l.l.l.l.l.l.l.l.l.l.#.#QtQt",
"QtQt.#.#.l.l.l.l.l.l.l.l.l.l.l.l.l.l.l.l.l.l.l.l.l.l.l.l.#.#QtQt",
"QtQtQtQtQtQtQtQtQtQtQtQtQtQtQtQtQtQtQtQtQtQtQtQtQtQtQtQtQtQtQtQt",
"QtQtQtQtQtQtQtQtQtQtQtQtQtQtQtQtQtQtQtQtQtQtQtQtQtQtQtQtQtQtQtQt"};
