/* XPM */
static char *dummy[]={
"32 32 6 1",
"b c #000000",
". c #404040",
"d c #510023",
"# c #606060",
"c c #7f0037",
"a c #808080",
"..#############a..#############a",
"..#############a..#############a",
"..#############a..#############a",
"..#############a..#############a",
"..#############a..#############a",
"..aaaaaaaaaaaaaa..aaaaaaaaaaaaaa",
"bbbbbbbbbbbbbbbbbbbbbbbbbbbbbbbb",
"bbbbbbbbbbbbbbbbbbbbbbbbbbbbbbbb",
"########bb##############bb######",
"........bb#.............bb#.....",
"........bbbbbbbbbbbbbbbbbb#.....",
"........bbbbbbbbbbbbbbbbbb#.....",
"........bbcdcccccccccddcbb#.....",
"........bbdddddccdccdcdcbb#.....",
"bbbbbbbbbbccdcccddccdcccbbbbbbbb",
"bbbbbbbbbbccccccdcdddcdcbbbbbbbb",
"bb######bbccccccdcddcddcbb######",
"bb#.....bbcdcdccdccccdccbb......",
"bb#.....bbddcddcccccccccbb......",
"bb#.....bbdcccdcdcccddccbb......",
"bb#.....bbdccccddcdccdccbb......",
"bb#.....bbccccccccdccdccbb......",
"bbbbbbbbbbcccdccdddccdccbbbbbbbb",
"bbbbbbbbbbccddcccccccdccbbbbbbbb",
"########bbccdcccdcddcdccbb######",
"........bbccdcdddcdcccccbb#.....",
"........bbcccccdccdccddcbb#.....",
"........bbdccdcccdddddccbb#.....",
"........bbddcddccdccccccbb#.....",
"........bbcccdcccdcccddcbb#.....",
"bbbbbbbbbbccddcccdccddccbbbbbbbb",
"bbbbbbbbbbccccccccccddccbbbbbbbb"};
