/* XPM */
static char *dummy[]={
"32 32 335 2",
"Qt c #000000",
"ao c #000013",
"c7 c #000b16",
"cj c #091521",
"b5 c #0f2b42",
"cA c #112317",
"cc c #121920",
"cU c #141f28",
"cY c #182737",
"aY c #190000",
"cp c #194411",
"ck c #1c190a",
"a7 c #1d1125",
"bZ c #1d2b42",
"bW c #1e2106",
"aW c #213c47",
"#9 c #241b21",
"cG c #242319",
"c5 c #242524",
"a3 c #270000",
"c2 c #272418",
"av c #281824",
"cX c #282c36",
"cF c #293719",
"bz c #2a2939",
"dd c #2c2c2c",
"ci c #2c394f",
"cP c #2d2116",
"bU c #2d2d2d",
"#T c #301d26",
"cQ c #30322d",
"bJ c #312d2d",
"cd c #313e56",
"ch c #314059",
"cV c #322d2f",
"cB c #325623",
".x c #333032",
"c. c #333333",
"cv c #333442",
"cn c #333a33",
"aP c #342632",
"aK c #351739",
"aO c #36242b",
"ar c #381800",
"b4 c #384359",
"an c #3a1d0c",
"cW c #3a3133",
"#K c #3b2830",
"bF c #3b3c47",
"ce c #3c4a65",
"bR c #3c4f6b",
"az c #3d2938",
"bG c #3d3b3c",
"c# c #3f5522",
"cw c #403742",
".# c #404040",
"#N c #412b3b",
"cu c #423f51",
"co c #434843",
"cE c #434d3d",
"#O c #442736",
"c6 c #443531",
"cg c #44516f",
"cb c #446421",
"#D c #452838",
"a. c #452b3b",
"b8 c #45301d",
"b0 c #45516c",
"cf c #45516e",
"d. c #473528",
"cx c #48424c",
"cH c #493126",
"as c #4a2f11",
"#C c #4a3143",
"cK c #4b2e00",
"bl c #4b3541",
"b. c #4c343f",
"bo c #4c3746",
"#s c #4c5149",
".l c #4c574a",
"cs c #4d2900",
"bk c #4d2d40",
"cR c #4d4e46",
"cD c #4e4d45",
"bM c #4e6082",
"bS c #4f3437",
"bA c #4f5267",
"bu c #503f4a",
"aH c #511124",
"#6 c #512a2c",
"cz c #512d08",
"#R c #51324b",
"#5 c #513535",
"am c #53362b",
"by c #533e30",
"dc c #545950",
"aA c #553449",
"#1 c #553a4e",
"b3 c #566073",
"c8 c #574239",
"b1 c #576176",
"b# c #583249",
"#M c #583a51",
"bv c #594255",
".t c #5a3851",
"ab c #5a3a50",
"aw c #5a3b53",
"aB c #5b3d4e",
"bH c #5b4532",
"#q c #5b4851",
"#i c #5b4e56",
"bn c #5c4458",
"cC c #5c4926",
".4 c #5d3a51",
"#V c #5d3a52",
"#S c #5d3a53",
"ah c #5d4f58",
"bT c #5e341f",
"#x c #5e3c55",
"#w c #5e3d54",
".Z c #5e3f53",
"cZ c #5e484e",
".M c #5e575b",
"aq c #5f435c",
"cm c #5f602c",
"#f c #603d57",
"cy c #613a2f",
".Q c #613e56",
"#U c #613f57",
"ca c #61832a",
".5 c #623c57",
".1 c #624059",
"#m c #633d59",
"ac c #63445d",
".y c #63475c",
"ax c #63545e",
".0 c #635b60",
"#j c #64485c",
"ct c #663d2d",
"#P c #66415a",
".n c #66415c",
".J c #66425c",
".B c #67425d",
"#H c #67465f",
"cS c #676d64",
"#L c #68415e",
"#o c #68425e",
"de c #684d3f",
"dg c #68554a",
".w c #686a67",
"#G c #69455f",
"c9 c #69534c",
"#0 c #697569",
".3 c #6a4560",
"#c c #6a5d62",
"#b c #6a7067",
"cL c #6b3a01",
"af c #6b786b",
"al c #6c4e5e",
".u c #6c5c63",
"#p c #6d4763",
"#3 c #6d4863",
"#Y c #6d4a65",
"aU c #6e473d",
".m c #6e5965",
"cO c #6f3e12",
"cI c #6f3f1a",
"a9 c #70756e",
"#4 c #714d6a",
"b6 c #715047",
"bj c #715255",
"a5 c #71574d",
"aS c #71756f",
".N c #724e6b",
"dl c #727e74",
".C c #734b69",
"#a c #734c6a",
"bB c #734d37",
".s c #734d6a",
"bE c #734e3a",
"#8 c #734e6b",
"cT c #737670",
"a4 c #73a4c2",
"#k c #744e6b",
"aL c #745063",
"#I c #74746c",
".6 c #754c6b",
"#l c #76506e",
"#u c #76506f",
"#n c #76516c",
"ae c #765371",
"ba c #765958",
".P c #774f6d",
".o c #774f6e",
"a# c #775272",
"au c #775473",
"d# c #777866",
"aa c #78526d",
"b2 c #787c92",
"ad c #795170",
"aM c #79546a",
".R c #7a5170",
"aj c #7a5372",
".I c #7a5570",
".2 c #7b5372",
"ak c #7b5878",
"#t c #7b6572",
"aT c #7b777a",
"aX c #7ba6c3",
"df c #7c5e4e",
"db c #7c8077",
"c1 c #7d4a11",
"ai c #7d5675",
"#B c #7d5676",
"ap c #7d587b",
"c4 c #7d8173",
"#E c #7e5474",
"cJ c #7f4505",
".7 c #7f5676",
"#h c #7f5877",
"at c #7f5a72",
"#J c #7f857a",
"aD c #807780",
".i c #80857c",
"#7 c #815c7c",
".8 c #816078",
"bN c #8185a0",
"bQ c #8186a0",
".k c #81887e",
"#F c #825b7b",
"cr c #827348",
"a8 c #827a7c",
"bP c #835948",
"aE c #838383",
"cl c #845f35",
"b9 c #848e84",
"bV c #848f85",
".h c #85837d",
"dk c #85857c",
"a6 c #86552c",
".d c #868380",
"bw c #868c7f",
"#d c #87687d",
"#g c #885e80",
"aC c #885f76",
".A c #885f81",
".z c #886182",
"bm c #888c83",
"#Z c #8a8186",
"bp c #8b583d",
".r c #8b6184",
"dm c #8b928b",
"bt c #8c5a42",
".q c #8c6285",
".v c #8c8a87",
".p c #8d6285",
".K c #8d8c88",
"dh c #8d938d",
"bh c #8e0000",
"cN c #8e5313",
"aV c #8e592c",
"aJ c #8e8e8d",
"bc c #8f0000",
"bL c #8f5a41",
".T c #906589",
".D c #906689",
".S c #91668a",
"#e c #917287",
".g c #918a8d",
"ay c #91968d",
"bY c #926648",
"#v c #92668a",
"#2 c #92668b",
"#Q c #92688c",
"c3 c #92968e",
"aQ c #92968f",
".f c #938c90",
"c0 c #945e0d",
"#W c #94698d",
".Y c #946e8d",
".9 c #947489",
".e c #948c90",
"#X c #956a8f",
"aR c #979994",
"#y c #986e91",
"dj c #999c96",
"aN c #9a6430",
".O c #9a6e94",
"ag c #9b9f99",
".U c #9c6f96",
"#A c #9c7594",
"da c #9c9f9c",
".F c #9d7098",
".c c #9d9f9b",
"bx c #9da19d",
"bI c #9da19e",
"bK c #9e623e",
"#r c #9fa09e",
".E c #a0739a",
".a c #a0a0a0",
".L c #a0a19e",
".b c #a0a19f",
"## c #a2799b",
".V c #a2799c",
".G c #a27d9b",
"#z c #a5859b",
"bC c #a66127",
"cq c #a6965b",
"cM c #a76607",
"bX c #a77d58",
".H c #a78b9d",
"#. c #ac90a3",
"bD c #ad6a39",
"bO c #adb4ca",
"aG c #ae7853",
".X c #b094a6",
"aF c #b17237",
".W c #b196a7",
"b7 c #b26f43",
"aI c #bc8c6e",
"a1 c #c09671",
".j c #c0c0c0",
"di c #c0c1bf",
"bi c #c4b5b2",
"bb c #c5b5b2",
"a2 c #d7ab84",
"bq c #dca67d",
"aZ c #e3b68c",
"bd c #f2c9a0",
"bg c #f3c9a1",
"br c #facea2",
"bs c #fbcea0",
"a0 c #fccd9e",
"be c #ffdcaf",
"bf c #ffdfb2",
"QtQtQtQtQtQtQtQtQtQtQtQtQtQtQtQtQtQtQtQtQtQtQtQtQtQtQtQtQtQtQtQt",
"QtQtQtQtQtQtQtQtQtQtQtQtQtQtQtQtQtQtQtQtQtQtQtQtQtQtQtQtQtQtQtQt",
"QtQt.#.#.a.a.a.a.a.a.a.a.a.a.a.a.a.a.a.a.a.a.a.a.a.a.a.a.#.#QtQt",
"QtQt.#.#.a.a.a.a.a.a.a.a.a.a.a.a.a.a.a.a.a.a.a.a.a.a.a.a.#.#QtQt",
"QtQt.a.a.b.b.b.b.b.b.a.a.c.d.e.f.f.g.h.i.a.a.b.b.b.b.b.b.j.jQtQt",
"QtQt.a.a.b.b.b.b.a.a.k.l.m.n.o.p.q.r.s.t.u.v.a.b.b.b.b.b.j.jQtQt",
"QtQt.a.a.b.b.b.a.w.x.y.z.A.B.C.D.E.F.G.H.I.J.K.a.b.b.b.b.j.jQtQt",
"QtQt.a.a.b.b.b.b.L.M.N.O.P.Q.R.S.T.U.V.W.X.Y.Z.a.b.b.b.b.j.jQtQt",
"QtQt.a.a.b.b.b.b.a.0.1.2.3.C.4.5.6.7.8.9#.###a#b.a.b.b.b.j.jQtQt",
"QtQt.a.a.b.b.b.a#c#d#e#f.4#g#h#i#j#k#l#m#n#o#p#q#r.a.b.b.j.jQtQt",
"QtQt.a.a.b.b.b.a#s#t#u#v#w#x#y#z#A#B#C#D#E#F#G#H#I.a.b.b.j.jQtQt",
"QtQt.a.a.b.b.a#J#K#L#M#N#O#P#Q#R#S#T#U#V.Q#W#X#Y#Z.a.b.b.j.jQtQt",
"QtQt.a.a.b.b.a#0#1#2#3#4#5#6#7#8#9a.a#aaabacadaeaf.a.b.b.j.jQtQt",
"QtQt.a.a.b.aagahaiajakalamanaoapaqQtarasatauavawaxag.a.b.j.jQtQt",
"QtQt.a.a.b.aayazaAaBaCQtaDaEaFaGaHaIaJaKaLaMaNaOaPaQ.a.b.j.jQtQt",
"QtQt.a.a.b.aaRaSaTaUaVaWaXaYaZa0a1a2a3a4a5a6a7a8a9aR.a.b.j.jQtQt",
"QtQt.a.a.b.b.a.a.ab.b#babbbcbdbebfbgbhbibjbkbl.a.a.a.b.b.j.jQtQt",
"QtQt.a.a.b.b.b.b.abmbnbobpbqbrbsbsbrbqbtbubvbw.a.b.b.b.b.j.jQtQt",
"QtQt.a.a.b.b.b.b.abxbybzbAbBbCbDbDbCbEbFbGbHbI.a.b.b.b.b.j.jQtQt",
"QtQt.a.a.b.b.b.b.abJbKbLbMbNbObPbPbObQbRbSbTbU.a.b.b.b.b.j.jQtQt",
"QtQt.a.a.b.b.b.abVbWbXbYbZb0b1b2b2b3b4b5b6b7b8b9.a.b.b.b.j.jQtQt",
"QtQt.a.a.b.b.b.ac.c#cacbcccdcecfcgchcicjckclcmcn.a.b.b.b.j.jQtQt",
"QtQt.a.a.b.b.b.acocpcqcrcsctcucvcwcxcyczcAcBcCcD.a.b.b.b.j.jQtQt",
"QtQt.a.a.b.b.b.b.acEcFcGcHcIcJcKcLcMcNcOcPcQcR.a.b.b.b.b.j.jQtQt",
"QtQt.a.a.b.b.b.b.a.ccScTcUcVcWcXcYcZc0c1c2c3.a.b.b.b.b.b.j.jQtQt",
"QtQt.a.a.b.b.b.b.b.a.a.ac4c5c6c7c8c9d.d#da.a.b.b.b.b.b.b.j.jQtQt",
"QtQt.a.a.b.b.b.b.b.b.b.b.adbdcdddedfdgdh.a.b.b.b.b.bdidi.j.jQtQt",
"QtQt.a.a.b.b.b.b.b.b.b.b.b.a.adjdkdldm.a.b.b.b.b.b.bdidi.j.jQtQt",
"QtQt.#.#.j.j.j.j.j.j.j.j.j.j.j.j.j.j.j.j.j.j.j.j.j.j.j.j.#.#QtQt",
"QtQt.#.#.j.j.j.j.j.j.j.j.j.j.j.j.j.j.j.j.j.j.j.j.j.j.j.j.#.#QtQt",
"QtQtQtQtQtQtQtQtQtQtQtQtQtQtQtQtQtQtQtQtQtQtQtQtQtQtQtQtQtQtQtQt",
"QtQtQtQtQtQtQtQtQtQtQtQtQtQtQtQtQtQtQtQtQtQtQtQtQtQtQtQtQtQtQtQt"};
